<svg width="1607" height="553" viewBox="0 0 1607 553" fill="none" xmlns="http://www.w3.org/2000/svg">
<path d="M129.521 276.155H270.469V140.948H114.283L0.000244141 276.155V415.225H129.521V276.155Z" fill="#4D3589"/>
<path d="M278.085 133.329V0.000183105H548.554V415.225H411.415V133.329H278.085Z" fill="#4D3589"/>
<path d="M403.796 422.844H137.137V552.363H403.796V422.844Z" fill="#4D3589"/>
<path d="M852.2 419.8C830.6 419.8 810.467 416.333 791.8 409.4C773.4 402.2 757.4 392.067 743.8 379C730.2 365.933 719.533 350.6 711.8 333C704.333 315.4 700.6 296.067 700.6 275C700.6 253.933 704.333 234.6 711.8 217C719.533 199.4 730.2 184.067 743.8 171C757.667 157.933 773.8 147.933 792.2 141C810.6 133.8 830.733 130.2 852.6 130.2C876.867 130.2 898.733 134.467 918.2 143C937.933 151.267 954.467 163.533 967.8 179.8L926.2 218.2C916.6 207.267 905.933 199.133 894.2 193.8C882.467 188.2 869.667 185.4 855.8 185.4C842.733 185.4 830.733 187.533 819.8 191.8C808.867 196.067 799.4 202.2 791.4 210.2C783.4 218.2 777.133 227.667 772.6 238.6C768.333 249.533 766.2 261.667 766.2 275C766.2 288.333 768.333 300.467 772.6 311.4C777.133 322.333 783.4 331.8 791.4 339.8C799.4 347.8 808.867 353.933 819.8 358.2C830.733 362.467 842.733 364.6 855.8 364.6C869.667 364.6 882.467 361.933 894.2 356.6C905.933 351 916.6 342.6 926.2 331.4L967.8 369.8C954.467 386.067 937.933 398.467 918.2 407C898.733 415.533 876.733 419.8 852.2 419.8ZM1137.99 415V373L1133.99 363.8V288.6C1133.99 275.267 1129.85 264.867 1121.59 257.4C1113.59 249.933 1101.19 246.2 1084.39 246.2C1072.92 246.2 1061.59 248.067 1050.39 251.8C1039.45 255.267 1030.12 260.067 1022.39 266.2L999.988 222.6C1011.72 214.333 1025.85 207.933 1042.39 203.4C1058.92 198.867 1075.72 196.6 1092.79 196.6C1125.59 196.6 1151.05 204.333 1169.19 219.8C1187.32 235.267 1196.39 259.4 1196.39 292.2V415H1137.99ZM1072.39 418.2C1055.59 418.2 1041.19 415.4 1029.19 409.8C1017.19 403.933 1007.99 396.067 1001.59 386.2C995.188 376.333 991.988 365.267 991.988 353C991.988 340.2 995.054 329 1001.19 319.4C1007.59 309.8 1017.59 302.333 1031.19 297C1044.79 291.4 1062.52 288.6 1084.39 288.6H1141.59V325H1091.19C1076.52 325 1066.39 327.4 1060.79 332.2C1055.45 337 1052.79 343 1052.79 350.2C1052.79 358.2 1055.85 364.6 1061.99 369.4C1068.39 373.933 1077.05 376.2 1087.99 376.2C1098.39 376.2 1107.72 373.8 1115.99 369C1124.25 363.933 1130.25 356.6 1133.99 347L1143.59 375.8C1139.05 389.667 1130.79 400.2 1118.79 407.4C1106.79 414.6 1091.32 418.2 1072.39 418.2ZM1252.86 415V118.2H1315.26V415H1252.86ZM1475.58 418.2C1452.64 418.2 1432.24 413.4 1414.38 403.8C1396.78 394.2 1382.78 381.133 1372.38 364.6C1362.24 347.8 1357.18 328.733 1357.18 307.4C1357.18 285.8 1362.24 266.733 1372.38 250.2C1382.78 233.4 1396.78 220.333 1414.38 211C1432.24 201.4 1452.64 196.6 1475.58 196.6C1498.24 196.6 1518.51 201.4 1536.38 211C1554.24 220.333 1568.24 233.267 1578.38 249.8C1588.51 266.333 1593.58 285.533 1593.58 307.4C1593.58 328.733 1588.51 347.8 1578.38 364.6C1568.24 381.133 1554.24 394.2 1536.38 403.8C1518.51 413.4 1498.24 418.2 1475.58 418.2ZM1475.58 367C1485.98 367 1495.31 364.6 1503.58 359.8C1511.84 355 1518.38 348.2 1523.18 339.4C1527.98 330.333 1530.38 319.667 1530.38 307.4C1530.38 294.867 1527.98 284.2 1523.18 275.4C1518.38 266.6 1511.84 259.8 1503.58 255C1495.31 250.2 1485.98 247.8 1475.58 247.8C1465.18 247.8 1455.84 250.2 1447.58 255C1439.31 259.8 1432.64 266.6 1427.58 275.4C1422.78 284.2 1420.38 294.867 1420.38 307.4C1420.38 319.667 1422.78 330.333 1427.58 339.4C1432.64 348.2 1439.31 355 1447.58 359.8C1455.84 364.6 1465.18 367 1475.58 367Z" fill="#1E1E1E"/>
</svg>
